<svg xmlns="http://www.w3.org/2000/svg" version="1.1" xmlns:xlink="http://www.w3.org/1999/xlink" xmlns:svgjs="http://svgjs.dev/svgjs" width="1500" height="1500" viewBox="0 0 1500 1500"><g transform="matrix(1,0,0,1,-0.323615160350073,-0.3236151603499593)"><svg viewBox="0 0 343 343" data-background-color="#ffffff" preserveAspectRatio="xMidYMid meet" height="1500" width="1500" xmlns="http://www.w3.org/2000/svg" xmlns:xlink="http://www.w3.org/1999/xlink"><g id="tight-bounds" transform="matrix(1,0,0,1,0.0740000000000407,0.07400000000001228)"><svg viewBox="0 0 342.85155851775386 342.85155851775386" height="342.85155851775386" width="342.85155851775386"><g><svg></svg></g><g><svg viewBox="0 0 342.85155851775386 342.85155851775386" height="342.85155851775386" width="342.85155851775386"><g><path d="M0 171.426c0-94.676 76.75-171.426 171.426-171.426 94.676 0 171.426 76.75 171.426 171.426 0 94.676-76.75 171.426-171.426 171.426-94.676 0-171.426-76.75-171.426-171.426zM171.426 340.421c93.334 0 168.995-75.662 168.995-168.995 0-93.334-75.662-168.995-168.995-168.995-93.334 0-168.995 75.662-168.995 168.995 0 93.334 75.662 168.995 168.995 168.995z" data-fill-palette-color="tertiary" fill="#096a2e" stroke="transparent"></path><ellipse rx="164.56874808852186" ry="164.56874808852186" cx="171.42577925887693" cy="171.42577925887693" fill="#096a2e" stroke="transparent" stroke-width="0" fill-opacity="1" data-fill-palette-color="tertiary"></ellipse></g><g transform="matrix(1,0,0,1,64.84655864529837,114.30866267454977)"><svg viewBox="0 0 213.1584412271571 114.23423316865431" height="114.23423316865431" width="213.1584412271571"><g><svg viewBox="0 0 213.1584412271571 114.23423316865431" height="114.23423316865431" width="213.1584412271571"><g><svg viewBox="0 0 213.1584412271571 114.23423316865431" height="114.23423316865431" width="213.1584412271571"><g transform="matrix(1,0,0,1,0,68.94806849392974)"><svg viewBox="0 0 213.1584412271571 45.286164674724574" height="45.286164674724574" width="213.1584412271571"><g id="textblocktransform"><svg viewBox="0 0 213.1584412271571 45.286164674724574" height="45.286164674724574" width="213.1584412271571" id="textblock"><g><svg viewBox="0 0 213.1584412271571 26.951443236332278" height="26.951443236332278" width="213.1584412271571"><g transform="matrix(1,0,0,1,0,0)"><svg width="213.1584412271571" viewBox="2.34 -39.79 318.19 40.23" height="26.951443236332278" data-palette-color="#ffffff"><path d="M19.56-8.59L24.19-8.59 24.19 0 2.34 0 2.34-8.59 7.06-8.59 7.06-30.25 2.34-30.25 2.34-38.84 34.4-38.84 34.4-23.14 27.34-23.14 25.81-30.25 19.56-30.25 19.56-22.9 25-22.9 25-16.65 19.56-16.65 19.56-8.59ZM49.61 0.44L49.61 0.44Q45.16 0.44 41.87-1.2L41.87-1.2Q38.52-2.81 36.67-5.93 34.81-9.06 34.81-13.35L34.81-13.35Q34.81-17.63 36.67-20.61L36.67-20.61Q38.52-23.61 41.87-25.13 45.21-26.66 49.61-26.66L49.61-26.66Q54.12-26.66 57.46-25.1 60.79-23.54 62.62-20.57 64.45-17.6 64.45-13.35L64.45-13.35Q64.45-9.06 62.62-5.93L62.62-5.93Q60.76-2.81 57.41-1.18 54.05 0.44 49.61 0.44ZM49.61-6.69L49.61-6.69Q51.22-6.69 52-8.28L52-8.28Q52.76-9.81 52.76-13.35L52.76-13.35Q52.76-16.6 52.01-18.05 51.27-19.51 49.61-19.51L49.61-19.51Q48.02-19.51 47.26-18.05 46.51-16.6 46.51-13.35L46.51-13.35Q46.51-9.89 47.29-8.28L47.29-8.28Q48.07-6.69 49.61-6.69ZM86.62-7.35L86.62 0 67.87 0 67.87-7.35 71.02-7.35 71.02-18.6 67.87-18.6 67.87-25.2 82.71-26.66 82.71-22.41Q83.49-23.63 85-24.6 86.52-25.56 88.24-26.11 89.96-26.66 91.33-26.66L91.33-26.66 91.33-16.31Q88.47-17.26 86.62-17.26L86.62-17.26Q84.27-17.26 83.49-15.91 82.71-14.55 82.71-12.35L82.71-12.35 82.71-7.35 86.62-7.35ZM108.85 0.44L108.85 0.44Q104.31 0.44 100.97-1.25L100.97-1.25Q97.6-2.91 95.81-6.01 94.01-9.11 94.01-13.26L94.01-13.26Q94.01-17.36 95.77-20.39L95.77-20.39Q97.5-23.39 100.68-25.02 103.85-26.66 108.12-26.66L108.12-26.66Q112.05-26.66 115.06-25.12L115.06-25.12Q118.06-23.56 119.71-20.7 121.35-17.85 121.35-14.04L121.35-14.04Q121.35-12.72 120.96-11.55L120.96-11.55 105.75-11.55Q105.75-9.25 107.49-7.87 109.22-6.49 111.66-6.49L111.66-6.49Q113.52-6.49 115.74-7.14 117.96-7.79 120.21-9.16L120.21-9.16 120.62-9.01 120.62-2.44Q118.11-1 115.46-0.28 112.81 0.44 108.85 0.44ZM105.75-16.55L105.75-16.55 105.75-15.84 112-15.84 112-16.36Q112-18.09 111.21-19.35 110.42-20.61 108.85-20.61L108.85-20.61Q107.56-20.61 106.66-19.32 105.75-18.04 105.75-16.55ZM158.75-18.6L155.46-18.6 147.79 0 135.34 0 127.19-18.6 123.6-18.6 123.6-26.15 142.35-26.15 142.35-18.6 139.64-18.6 143.89-6.3 148.6-18.6 145.5-18.6 145.5-26.15 158.75-26.15 158.75-18.6ZM176.16 0.44L176.16 0.44Q171.62 0.44 168.27-1.25L168.27-1.25Q164.9-2.91 163.11-6.01 161.32-9.11 161.32-13.26L161.32-13.26Q161.32-17.36 163.07-20.39L163.07-20.39Q164.81-23.39 167.98-25.02 171.15-26.66 175.43-26.66L175.43-26.66Q179.36-26.66 182.36-25.12L182.36-25.12Q185.36-23.56 187.01-20.7 188.66-17.85 188.66-14.04L188.66-14.04Q188.66-12.72 188.27-11.55L188.27-11.55 173.06-11.55Q173.06-9.25 174.79-7.87 176.53-6.49 178.97-6.49L178.97-6.49Q180.82-6.49 183.04-7.14 185.27-7.79 187.51-9.16L187.51-9.16 187.93-9.01 187.93-2.44Q185.41-1 182.76-0.28 180.11 0.44 176.16 0.44ZM173.06-16.55L173.06-16.55 173.06-15.84 179.31-15.84 179.31-16.36Q179.31-18.09 178.52-19.35 177.72-20.61 176.16-20.61L176.16-20.61Q174.87-20.61 173.96-19.32 173.06-18.04 173.06-16.55ZM211.19-7.35L211.19 0 192.44 0 192.44-7.35 195.59-7.35 195.59-18.6 192.44-18.6 192.44-25.2 207.28-26.66 207.28-22.41Q208.07-23.63 209.58-24.6 211.09-25.56 212.81-26.11 214.54-26.66 215.9-26.66L215.9-26.66 215.9-16.31Q213.05-17.26 211.19-17.26L211.19-17.26Q208.85-17.26 208.07-15.91 207.28-14.55 207.28-12.35L207.28-12.35 207.28-7.35 211.19-7.35ZM256.67-8.79L260.67-8.79 260.67 0 238.92 0 238.92-8.79 242.92-8.79 242.92-30.25 239.48-30.25 238.43-23.56 231.57-23.56 231.57-38.84 268.12-38.84 268.12-23.56 261.28-23.56 260.23-30.25 256.67-30.25 256.67-8.79ZM281.08-28.71L281.08-28.71Q278.03-28.71 276.05-30.15 274.07-31.59 274.07-34.3L274.07-34.3Q274.07-37.01 276.05-38.4 278.03-39.79 281.13-39.79L281.13-39.79Q284.23-39.79 286.17-38.43 288.11-37.06 288.11-34.3L288.11-34.3Q288.11-31.59 286.12-30.15 284.13-28.71 281.08-28.71ZM286.92-7.35L290.07-7.35 290.07 0 272.07 0 272.07-7.35 275.22-7.35 275.22-18.6 272.07-18.6 272.07-24.61 286.92-26.15 286.92-7.35ZM308.03 0.44L308.03 0.44Q303.49 0.44 300.15-1.25L300.15-1.25Q296.78-2.91 294.98-6.01 293.19-9.11 293.19-13.26L293.19-13.26Q293.19-17.36 294.95-20.39L294.95-20.39Q296.68-23.39 299.85-25.02 303.03-26.66 307.3-26.66L307.3-26.66Q311.23-26.66 314.23-25.12L314.23-25.12Q317.24-23.56 318.88-20.7 320.53-17.85 320.53-14.04L320.53-14.04Q320.53-12.72 320.14-11.55L320.14-11.55 304.93-11.55Q304.93-9.25 306.66-7.87 308.4-6.49 310.84-6.49L310.84-6.49Q312.69-6.49 314.92-7.14 317.14-7.79 319.38-9.16L319.38-9.16 319.8-9.01 319.8-2.44Q317.28-1 314.64-0.28 311.99 0.44 308.03 0.44ZM304.93-16.55L304.93-16.55 304.93-15.84 311.18-15.84 311.18-16.36Q311.18-18.09 310.39-19.35 309.59-20.61 308.03-20.61L308.03-20.61Q306.74-20.61 305.83-19.32 304.93-18.04 304.93-16.55Z" opacity="1" transform="matrix(1,0,0,1,0,0)" fill="#ffffff" class="wordmark-text-0" data-fill-palette-color="quaternary" id="text-0"></path></svg></g></svg></g><g transform="matrix(1,0,0,1,0,33.31403214979266)"><svg viewBox="0 0 213.1584412271571 11.972132524931915" height="11.972132524931915" width="213.1584412271571"><g transform="matrix(1,0,0,1,0,0)"><svg width="213.1584412271571" viewBox="0.95 -33.48 762.93 42.86" height="11.972132524931915" data-palette-color="#ffffff"><path d="M15.5-9.6L11.93-9.6 0.95-31.95 5.33-31.95 11.2-19.73 13.55-14.43 13.88-14.43 16.23-19.73 22.08-31.95 26.48-31.95 15.5-9.6ZM15.75 0L11.68 0 11.68-13.48 15.75-13.48 15.75 0ZM40.4 0.63L40.4 0.63Q35.15 0.63 32.44-2.21 29.73-5.05 29.73-10.38L29.73-10.38 29.73-14.1Q29.73-19.4 32.45-22.23 35.18-25.05 40.4-25.05L40.4-25.05Q45.65-25.05 48.36-22.23 51.08-19.4 51.08-14.1L51.08-14.1 51.08-10.38Q51.08-5.05 48.36-2.21 45.65 0.63 40.4 0.63ZM40.4-2.68L40.4-2.68Q43.65-2.68 45.34-4.6 47.03-6.53 47.03-10.15L47.03-10.15 47.03-14.33Q47.03-17.93 45.34-19.84 43.65-21.75 40.4-21.75L40.4-21.75Q37.18-21.75 35.48-19.84 33.78-17.93 33.78-14.33L33.78-14.33 33.78-10.15Q33.78-6.53 35.48-4.6 37.18-2.68 40.4-2.68ZM56.4-24.4L60.43-24.4 60.43-9.22Q60.43-7.3 60.96-5.86 61.5-4.42 62.73-3.64 63.95-2.85 66.03-2.85L66.03-2.85Q67.98-2.85 69.38-3.56 70.78-4.28 71.66-5.53 72.55-6.78 72.88-8.35L72.88-8.35 73.6-5.48 72.73-5.48Q72.35-3.83 71.35-2.46 70.35-1.1 68.66-0.29 66.98 0.53 64.5 0.53L64.5 0.53Q61.63 0.53 59.84-0.56 58.05-1.65 57.23-3.74 56.4-5.83 56.4-8.78L56.4-8.78 56.4-24.4ZM72.7-24.4L76.75-24.4 76.75 0 72.7 0 72.88-5.85 72.7-6.1 72.7-24.4ZM87.2-14.93L87.2-14.93 86.28-18.05 87.28-18.1Q88.08-21.2 90.03-22.99 91.98-24.78 95.2-24.78L95.2-24.78Q96-24.78 96.64-24.65 97.28-24.53 97.78-24.35L97.78-24.35 98.03-20.43Q97.4-20.63 96.64-20.75 95.88-20.88 94.95-20.88L94.95-20.88Q92.2-20.88 90.16-19.35 88.13-17.82 87.2-14.93ZM87.4 0L83.35 0 83.35-24.4 87.3-24.4 87.1-17.2 87.4-16.9 87.4 0ZM124.45-10.63L115.28-10.63 115.28-14.08 124.35-14.08Q127.63-14.08 129.1-15.71 130.58-17.35 130.58-20.23L130.58-20.23 130.58-22.4Q130.58-25.33 129.11-26.93 127.65-28.53 124.4-28.53L124.4-28.53 115.25-28.53 115.25-31.95 124.48-31.95Q129.83-31.95 132.26-29.44 134.7-26.93 134.7-22.53L134.7-22.53 134.7-20.13Q134.7-15.68 132.24-13.15 129.78-10.63 124.45-10.63L124.45-10.63ZM116.68 0L112.58 0 112.58-31.95 116.65-31.95 116.65-13.05 116.68-11.2 116.68 0ZM143.98-14.93L143.98-14.93 143.05-18.05 144.05-18.1Q144.85-21.2 146.8-22.99 148.75-24.78 151.98-24.78L151.98-24.78Q152.78-24.78 153.41-24.65 154.05-24.53 154.55-24.35L154.55-24.35 154.8-20.43Q154.18-20.63 153.41-20.75 152.65-20.88 151.73-20.88L151.73-20.88Q148.98-20.88 146.94-19.35 144.9-17.82 143.98-14.93ZM144.18 0L140.13 0 140.13-24.4 144.08-24.4 143.88-17.2 144.18-16.9 144.18 0ZM169.03 0.55L169.03 0.55Q163.45 0.55 160.63-2.18 157.8-4.9 157.8-9.98L157.8-9.98 157.8-14.33Q157.8-19.48 160.43-22.26 163.05-25.05 168.1-25.05L168.1-25.05Q171.5-25.05 173.78-23.79 176.05-22.53 177.2-20.2 178.35-17.88 178.35-14.65L178.35-14.65 178.35-13.75Q178.35-12.95 178.29-12.15 178.23-11.35 178.13-10.58L178.13-10.58 174.4-10.58Q174.45-11.78 174.46-12.85 174.48-13.93 174.48-14.83L174.48-14.83Q174.48-17.05 173.76-18.59 173.05-20.13 171.64-20.94 170.23-21.75 168.1-21.75L168.1-21.75Q164.95-21.75 163.38-19.93 161.8-18.1 161.8-14.7L161.8-14.7 161.8-12.38 161.83-11.88 161.83-9.55Q161.83-8.03 162.28-6.8 162.73-5.58 163.69-4.69 164.65-3.8 166.14-3.34 167.63-2.88 169.68-2.88L169.68-2.88Q172.05-2.88 174.1-3.5 176.15-4.13 177.95-5.2L177.95-5.2 177.58-1.7Q175.95-0.68 173.8-0.06 171.65 0.55 169.03 0.55ZM177.28-10.58L159.93-10.58 159.93-13.63 177.28-13.63 177.28-10.58ZM218.28 0L214.23 0 214.23-15.28Q214.23-17.2 213.74-18.61 213.25-20.03 212.14-20.8 211.03-21.58 209.15-21.58L209.15-21.58Q207.38-21.58 206.08-20.85 204.78-20.13 203.98-18.91 203.18-17.7 202.85-16.15L202.85-16.15 202.23-19.03 202.73-19.03Q203.13-20.6 204.08-21.95 205.03-23.3 206.65-24.13 208.28-24.95 210.68-24.95L210.68-24.95Q213.4-24.95 215.06-23.88 216.73-22.8 217.5-20.74 218.28-18.68 218.28-15.73L218.28-15.73 218.28 0ZM187.8 0L183.75 0 183.75-24.4 187.8-24.4 187.63-18.55 187.8-18.3 187.8 0ZM203.03 0L199 0 199-15.28Q199-17.2 198.51-18.61 198.03-20.03 196.93-20.8 195.83-21.58 193.95-21.58L193.95-21.58Q192.15-21.58 190.85-20.85 189.55-20.13 188.75-18.89 187.95-17.65 187.63-16.07L187.63-16.07 186.88-18.95 187.78-18.95Q188.15-20.6 189.08-21.96 190-23.33 191.59-24.14 193.18-24.95 195.45-24.95L195.45-24.95Q198.83-24.95 200.59-23.2 202.35-21.45 202.8-18.1L202.8-18.1Q202.93-17.6 202.98-17.01 203.03-16.43 203.03-15.85L203.03-15.85 203.03 0ZM228.68 0L224.63 0 224.63-24.4 228.68-24.4 228.68 0ZM226.65-28.4L226.65-28.4Q225.4-28.4 224.79-29.06 224.18-29.73 224.18-30.88L224.18-30.88 224.18-31Q224.18-32.18 224.79-32.83 225.4-33.48 226.65-33.48L226.65-33.48Q227.9-33.48 228.53-32.83 229.15-32.18 229.15-31L229.15-31 229.15-30.88Q229.15-29.7 228.53-29.05 227.9-28.4 226.65-28.4ZM245.63 0.55L245.63 0.55Q240.05 0.55 237.23-2.18 234.4-4.9 234.4-9.98L234.4-9.98 234.4-14.33Q234.4-19.48 237.03-22.26 239.65-25.05 244.7-25.05L244.7-25.05Q248.1-25.05 250.38-23.79 252.65-22.53 253.8-20.2 254.95-17.88 254.95-14.65L254.95-14.65 254.95-13.75Q254.95-12.95 254.89-12.15 254.83-11.35 254.73-10.58L254.73-10.58 251-10.58Q251.05-11.78 251.06-12.85 251.08-13.93 251.08-14.83L251.08-14.83Q251.08-17.05 250.36-18.59 249.65-20.13 248.24-20.94 246.83-21.75 244.7-21.75L244.7-21.75Q241.55-21.75 239.98-19.93 238.4-18.1 238.4-14.7L238.4-14.7 238.4-12.38 238.43-11.88 238.43-9.55Q238.43-8.03 238.88-6.8 239.33-5.58 240.29-4.69 241.25-3.8 242.74-3.34 244.23-2.88 246.28-2.88L246.28-2.88Q248.65-2.88 250.7-3.5 252.75-4.13 254.55-5.2L254.55-5.2 254.18-1.7Q252.55-0.68 250.4-0.06 248.25 0.55 245.63 0.55ZM253.88-10.58L236.53-10.58 236.53-13.63 253.88-13.63 253.88-10.58ZM264.2-14.93L264.2-14.93 263.28-18.05 264.28-18.1Q265.07-21.2 267.03-22.99 268.98-24.78 272.2-24.78L272.2-24.78Q273-24.78 273.64-24.65 274.28-24.53 274.78-24.35L274.78-24.35 275.03-20.43Q274.4-20.63 273.64-20.75 272.88-20.88 271.95-20.88L271.95-20.88Q269.2-20.88 267.16-19.35 265.13-17.82 264.2-14.93ZM264.4 0L260.35 0 260.35-24.4 264.3-24.4 264.1-17.2 264.4-16.9 264.4 0ZM293.68 0L289.57 0 289.57-31.95 293.68-31.95 293.68 0ZM309.5 0L290.8 0 290.8-3.48 309.5-3.48 309.5 0ZM308.98-14.58L291.93-14.58 291.93-18.03 308.98-18.03 308.98-14.58ZM309.35-28.48L290.78-28.48 290.78-31.95 309.35-31.95 309.35-28.48ZM329.22-11.45L315.02-11.45 315.02-14.78 329.22-14.78 329.22-11.45ZM347.13 0L340.53 0 333.93-31.95 338.18-31.95 342.82-8.08 343.7-3.48 344.15-3.48 345-8.08 349.68-31.13 355.8-31.13 360.48-8.08 361.32-3.48 361.78-3.48 362.68-8.08 367.32-31.95 371.53-31.95 364.95 0 358.4 0 354.7-18.38 352.95-27.7 352.55-27.7 350.78-18.38 347.13 0ZM386.73 0.55L386.73 0.55Q381.15 0.55 378.32-2.18 375.5-4.9 375.5-9.98L375.5-9.98 375.5-14.33Q375.5-19.48 378.13-22.26 380.75-25.05 385.8-25.05L385.8-25.05Q389.2-25.05 391.48-23.79 393.75-22.53 394.9-20.2 396.05-17.88 396.05-14.65L396.05-14.65 396.05-13.75Q396.05-12.95 395.99-12.15 395.93-11.35 395.82-10.58L395.82-10.58 392.1-10.58Q392.15-11.78 392.16-12.85 392.18-13.93 392.18-14.83L392.18-14.83Q392.18-17.05 391.46-18.59 390.75-20.13 389.34-20.94 387.93-21.75 385.8-21.75L385.8-21.75Q382.65-21.75 381.07-19.93 379.5-18.1 379.5-14.7L379.5-14.7 379.5-12.38 379.53-11.88 379.53-9.55Q379.53-8.03 379.98-6.8 380.43-5.58 381.39-4.69 382.35-3.8 383.84-3.34 385.32-2.88 387.38-2.88L387.38-2.88Q389.75-2.88 391.8-3.5 393.85-4.13 395.65-5.2L395.65-5.2 395.28-1.7Q393.65-0.68 391.5-0.06 389.35 0.55 386.73 0.55ZM394.98-10.58L377.63-10.58 377.63-13.63 394.98-13.63 394.98-10.58ZM409.5 0.53L409.5 0.53Q405.1 0.53 402.8-2.2 400.5-4.93 400.5-10.15L400.5-10.15 400.5-14.18Q400.5-19.43 402.83-22.19 405.15-24.95 409.68-24.95L409.68-24.95Q411.93-24.95 413.58-24.19 415.23-23.43 416.25-22.05 417.28-20.68 417.63-18.8L417.63-18.8 418.95-18.8 417.75-15.08Q417.68-17.23 416.79-18.69 415.9-20.15 414.39-20.9 412.88-21.65 410.93-21.65L410.93-21.65Q407.83-21.65 406.19-19.85 404.55-18.05 404.55-14.55L404.55-14.55 404.55-9.9Q404.55-6.45 406.19-4.65 407.83-2.85 410.93-2.85L410.93-2.85Q412.78-2.85 414.2-3.56 415.63-4.28 416.56-5.54 417.5-6.8 417.85-8.4L417.85-8.4 418.85-5.5 417.65-5.5Q417.3-3.85 416.31-2.48 415.33-1.1 413.66-0.29 412 0.53 409.5 0.53ZM421.7 0L417.65 0 417.83-5.9 417.75-7.2 417.75-17.4 417.78-18.25 417.68-25.18 417.68-33.13 421.7-33.13 421.7 0ZM436.35 0.53L436.35 0.53Q431.95 0.53 429.65-2.2 427.35-4.93 427.35-10.15L427.35-10.15 427.35-14.18Q427.35-19.43 429.68-22.19 432-24.95 436.53-24.95L436.53-24.95Q438.78-24.95 440.43-24.19 442.08-23.43 443.1-22.05 444.13-20.68 444.48-18.8L444.48-18.8 445.8-18.8 444.6-15.08Q444.53-17.23 443.64-18.69 442.75-20.15 441.24-20.9 439.73-21.65 437.78-21.65L437.78-21.65Q434.68-21.65 433.04-19.85 431.4-18.05 431.4-14.55L431.4-14.55 431.4-9.9Q431.4-6.45 433.04-4.65 434.68-2.85 437.78-2.85L437.78-2.85Q439.63-2.85 441.05-3.56 442.48-4.28 443.41-5.54 444.35-6.8 444.7-8.4L444.7-8.4 445.7-5.5 444.5-5.5Q444.15-3.85 443.16-2.48 442.18-1.1 440.51-0.29 438.85 0.53 436.35 0.53ZM448.55 0L444.5 0 444.68-5.9 444.6-7.2 444.6-17.4 444.63-18.25 444.53-25.18 444.53-33.13 448.55-33.13 448.55 0ZM459.28 0L455.23 0 455.23-24.4 459.28-24.4 459.28 0ZM457.25-28.4L457.25-28.4Q456-28.4 455.39-29.06 454.78-29.73 454.78-30.88L454.78-30.88 454.78-31Q454.78-32.18 455.39-32.83 456-33.48 457.25-33.48L457.25-33.48Q458.5-33.48 459.13-32.83 459.75-32.18 459.75-31L459.75-31 459.75-30.88Q459.75-29.7 459.13-29.05 458.5-28.4 457.25-28.4ZM486.35 0L482.3 0 482.3-15.18Q482.3-17.15 481.76-18.57 481.23-20 480.01-20.79 478.8-21.58 476.7-21.58L476.7-21.58Q474.78-21.58 473.36-20.85 471.95-20.13 471.08-18.89 470.2-17.65 469.85-16.07L469.85-16.07 469.13-18.95 470-18.95Q470.4-20.6 471.4-21.96 472.4-23.33 474.09-24.14 475.78-24.95 478.23-24.95L478.23-24.95Q481.13-24.95 482.91-23.85 484.7-22.75 485.53-20.69 486.35-18.63 486.35-15.63L486.35-15.63 486.35 0ZM470.03 0L465.98 0 465.98-24.4 470.03-24.4 469.85-18.55 470.03-18.32 470.03 0ZM502.13-7.3L502.13-7.3Q497.15-7.3 494.49-9.47 491.83-11.65 491.83-15.7L491.83-15.7 491.83-16.32Q491.83-18.85 492.86-20.73 493.9-22.6 496.18-23.66 498.45-24.73 502.13-24.83L502.13-24.83 514.58-25.23 514.58-22.03 507.23-22.28 507.2-22.1Q508.93-21.75 510.03-20.9 511.13-20.05 511.66-18.78 512.2-17.5 512.2-15.8L512.2-15.8 512.2-15.25Q512.2-11.38 509.65-9.34 507.1-7.3 502.13-7.3ZM501.95 6.15L501.95 6.15 502.53 6.15Q504.78 6.15 506.39 5.81 508 5.48 508.88 4.75 509.75 4.03 509.75 2.83L509.75 2.83 509.75 2.73Q509.75 1.33 508.74 0.59 507.73-0.15 505.28-0.38L505.28-0.38 498.38-1 499.53-1.05Q498.13-0.85 497.06-0.4 496 0.05 495.4 0.79 494.8 1.53 494.8 2.63L494.8 2.63 494.8 2.68Q494.8 3.95 495.68 4.73 496.55 5.5 498.15 5.83 499.75 6.15 501.95 6.15ZM502.45 9.38L501.73 9.38Q498.43 9.38 496.04 8.81 493.65 8.25 492.34 6.99 491.03 5.73 491.03 3.6L491.03 3.6 491.03 3.5Q491.03 2 491.74 1 492.45 0 493.66-0.58 494.88-1.15 496.38-1.35L496.38-1.35 496.35-1.5Q494.3-1.85 493.33-2.71 492.35-3.58 492.35-4.95L492.35-4.95 492.35-4.98Q492.35-5.93 492.79-6.6 493.23-7.28 494.11-7.68 495-8.08 496.38-8.18L496.38-8.18 496.38-8.68 501.03-7.5 499.13-7.55Q497.43-7.53 496.78-7.14 496.13-6.75 496.13-5.98L496.13-5.98 496.13-5.95Q496.13-5.13 497.05-4.7 497.98-4.28 500.2-4.03L500.2-4.03 506.13-3.43Q510-3.03 511.78-1.56 513.55-0.1 513.55 2.75L513.55 2.75 513.55 2.88Q513.55 5.15 512.2 6.6 510.85 8.05 508.38 8.71 505.9 9.38 502.45 9.38L502.45 9.38ZM502.08-10.3L502.08-10.3Q504.18-10.3 505.56-10.91 506.95-11.53 507.66-12.76 508.38-14 508.38-15.8L508.38-15.8 508.38-16.4Q508.38-18.15 507.69-19.38 507-20.6 505.63-21.24 504.25-21.88 502.18-21.88L502.18-21.88 502.03-21.88Q499.78-21.88 498.36-21.19 496.95-20.5 496.31-19.26 495.68-18.03 495.68-16.38L495.68-16.38 495.68-15.8Q495.68-14 496.39-12.78 497.1-11.55 498.53-10.93 499.95-10.3 502.08-10.3ZM539.53 0L531.63 0 531.63-3.5 539.38-3.5Q543.63-3.5 545.76-5.81 547.9-8.13 547.9-12.43L547.9-12.43 547.9-19.55Q547.9-23.88 545.76-26.18 543.63-28.48 539.38-28.48L539.38-28.48 531.6-28.48 531.6-31.95 539.53-31.95Q545.73-31.95 548.9-28.76 552.08-25.58 552.08-19.58L552.08-19.58 552.08-12.4Q552.08-6.43 548.9-3.21 545.73 0 539.53 0L539.53 0ZM532.93 0L528.83 0 528.83-31.95 532.93-31.95 532.93 0ZM568.18 0.55L568.18 0.55Q562.6 0.55 559.78-2.18 556.95-4.9 556.95-9.98L556.95-9.98 556.95-14.33Q556.95-19.48 559.58-22.26 562.2-25.05 567.25-25.05L567.25-25.05Q570.65-25.05 572.93-23.79 575.2-22.53 576.35-20.2 577.5-17.88 577.5-14.65L577.5-14.65 577.5-13.75Q577.5-12.95 577.44-12.15 577.38-11.35 577.28-10.58L577.28-10.58 573.55-10.58Q573.6-11.78 573.61-12.85 573.63-13.93 573.63-14.83L573.63-14.83Q573.63-17.05 572.91-18.59 572.2-20.13 570.79-20.94 569.38-21.75 567.25-21.75L567.25-21.75Q564.1-21.75 562.53-19.93 560.95-18.1 560.95-14.7L560.95-14.7 560.95-12.38 560.98-11.88 560.98-9.55Q560.98-8.03 561.43-6.8 561.88-5.58 562.84-4.69 563.8-3.8 565.29-3.34 566.78-2.88 568.83-2.88L568.83-2.88Q571.2-2.88 573.25-3.5 575.3-4.13 577.1-5.2L577.1-5.2 576.73-1.7Q575.1-0.68 572.95-0.06 570.8 0.55 568.18 0.55ZM576.43-10.58L559.08-10.58 559.08-13.63 576.43-13.63 576.43-10.58ZM590.53 0.55L590.53 0.55Q587.58 0.55 585.38-0.09 583.18-0.73 581.73-1.48L581.73-1.48 581.35-5.23Q583.18-4.28 585.36-3.58 587.55-2.88 590.33-2.88L590.33-2.88Q593.15-2.88 594.58-3.78 596-4.67 596-6.45L596-6.45 596-6.73Q596-7.88 595.46-8.63 594.93-9.38 593.53-9.95 592.13-10.53 589.55-11.1L589.55-11.1Q586.48-11.78 584.7-12.69 582.93-13.6 582.16-14.95 581.4-16.3 581.4-18.25L581.4-18.25 581.4-18.48Q581.4-21.68 583.63-23.33 585.85-24.98 590.33-24.98L590.33-24.98Q593.2-24.98 595.31-24.33 597.43-23.68 598.78-22.88L598.78-22.88 599.15-19.45Q597.53-20.4 595.43-21.03 593.33-21.65 590.7-21.65L590.7-21.65Q588.8-21.65 587.63-21.26 586.45-20.88 585.93-20.16 585.4-19.45 585.4-18.45L585.4-18.45 585.4-18.25Q585.4-17.15 585.93-16.39 586.45-15.63 587.81-15.06 589.18-14.5 591.6-13.98L591.6-13.98Q594.73-13.35 596.56-12.48 598.4-11.6 599.2-10.26 600-8.93 600-6.83L600-6.83 600-6.4Q600-2.95 597.6-1.2 595.2 0.55 590.53 0.55ZM613.83 0.5L613.83 0.5Q611 0.5 609.28-0.35 607.55-1.2 606.78-2.93 606-4.65 606-7.23L606-7.23 606-22.63 610-22.63 610-7.7Q610-5.3 611.1-4.16 612.2-3.03 614.8-3.03L614.8-3.03Q616.28-3.03 617.64-3.35 619-3.68 620.2-4.28L620.2-4.28 619.83-0.8Q618.65-0.2 617.08 0.15 615.5 0.5 613.83 0.5ZM619.58-20.8L602-20.8 602-24.05 619.95-24.05 619.58-20.8ZM609.9-23.65L606.03-23.65 606-30.5 610.08-31.03 609.9-23.65ZM628.85 0L624.8 0 624.8-24.4 628.85-24.4 628.85 0ZM626.83-28.4L626.83-28.4Q625.58-28.4 624.96-29.06 624.35-29.73 624.35-30.88L624.35-30.88 624.35-31Q624.35-32.18 624.96-32.83 625.58-33.48 626.83-33.48L626.83-33.48Q628.08-33.48 628.7-32.83 629.33-32.18 629.33-31L629.33-31 629.33-30.88Q629.33-29.7 628.7-29.05 628.08-28.4 626.83-28.4ZM655.93 0L651.88 0 651.88-15.18Q651.88-17.15 651.34-18.57 650.8-20 649.59-20.79 648.38-21.58 646.28-21.58L646.28-21.58Q644.35-21.58 642.94-20.85 641.53-20.13 640.65-18.89 639.78-17.65 639.43-16.07L639.43-16.07 638.7-18.95 639.58-18.95Q639.98-20.6 640.98-21.96 641.98-23.33 643.66-24.14 645.35-24.95 647.8-24.95L647.8-24.95Q650.7-24.95 652.49-23.85 654.28-22.75 655.1-20.69 655.93-18.63 655.93-15.63L655.93-15.63 655.93 0ZM639.6 0L635.55 0 635.55-24.4 639.6-24.4 639.43-18.55 639.6-18.32 639.6 0ZM680.7 0L676.68 0 676.85-5.93 676.7-6.55 676.7-14.33 676.73-15.75Q676.73-18.73 675.21-20.15 673.7-21.58 670.43-21.58L670.43-21.58Q667.8-21.58 665.61-20.83 663.43-20.08 661.73-19.07L661.73-19.07 662.1-22.53Q663.05-23.1 664.36-23.66 665.68-24.23 667.36-24.6 669.05-24.98 671.08-24.98L671.08-24.98Q673.7-24.98 675.54-24.34 677.38-23.7 678.51-22.5 679.65-21.3 680.18-19.6 680.7-17.9 680.7-15.8L680.7-15.8 680.7 0ZM668.28 0.53L668.28 0.53Q664.65 0.53 662.71-1.24 660.78-3 660.78-6.28L660.78-6.28 660.78-7Q660.78-10.38 662.86-12.04 664.95-13.7 669.5-14.35L669.5-14.35 677.23-15.45 677.45-12.5 670-11.43Q667.2-11.03 666-10.06 664.8-9.1 664.8-7.23L664.8-7.23 664.8-6.83Q664.8-4.9 665.99-3.88 667.18-2.85 669.55-2.85L669.55-2.85Q671.65-2.85 673.15-3.58 674.65-4.3 675.58-5.53 676.5-6.75 676.83-8.25L676.83-8.25 677.45-5.5 676.68-5.5Q676.33-3.9 675.36-2.53 674.4-1.15 672.68-0.31 670.95 0.53 668.28 0.53ZM695.78 0.5L695.78 0.5Q692.95 0.5 691.23-0.35 689.5-1.2 688.73-2.93 687.95-4.65 687.95-7.23L687.95-7.23 687.95-22.63 691.95-22.63 691.95-7.7Q691.95-5.3 693.05-4.16 694.15-3.03 696.75-3.03L696.75-3.03Q698.23-3.03 699.59-3.35 700.95-3.68 702.15-4.28L702.15-4.28 701.78-0.8Q700.6-0.2 699.03 0.15 697.45 0.5 695.78 0.5ZM701.53-20.8L683.95-20.8 683.95-24.05 701.9-24.05 701.53-20.8ZM691.85-23.65L687.98-23.65 687.95-30.5 692.03-31.03 691.85-23.65ZM710.8 0L706.75 0 706.75-24.4 710.8-24.4 710.8 0ZM708.78-28.4L708.78-28.4Q707.53-28.4 706.91-29.06 706.3-29.73 706.3-30.88L706.3-30.88 706.3-31Q706.3-32.18 706.91-32.83 707.53-33.48 708.78-33.48L708.78-33.48Q710.03-33.48 710.65-32.83 711.28-32.18 711.28-31L711.28-31 711.28-30.88Q711.28-29.7 710.65-29.05 710.03-28.4 708.78-28.4ZM727.2 0.63L727.2 0.63Q721.95 0.63 719.24-2.21 716.53-5.05 716.53-10.38L716.53-10.38 716.53-14.1Q716.53-19.4 719.25-22.23 721.98-25.05 727.2-25.05L727.2-25.05Q732.45-25.05 735.16-22.23 737.88-19.4 737.88-14.1L737.88-14.1 737.88-10.38Q737.88-5.05 735.16-2.21 732.45 0.63 727.2 0.63ZM727.2-2.68L727.2-2.68Q730.45-2.68 732.14-4.6 733.83-6.53 733.83-10.15L733.83-10.15 733.83-14.33Q733.83-17.93 732.14-19.84 730.45-21.75 727.2-21.75L727.2-21.75Q723.98-21.75 722.28-19.84 720.58-17.93 720.58-14.33L720.58-14.33 720.58-10.15Q720.58-6.53 722.28-4.6 723.98-2.68 727.2-2.68ZM763.88 0L759.83 0 759.83-15.18Q759.83-17.15 759.29-18.57 758.75-20 757.54-20.79 756.33-21.58 754.23-21.58L754.23-21.58Q752.3-21.58 750.89-20.85 749.48-20.13 748.6-18.89 747.73-17.65 747.38-16.07L747.38-16.07 746.65-18.95 747.53-18.95Q747.93-20.6 748.93-21.96 749.93-23.33 751.61-24.14 753.3-24.95 755.75-24.95L755.75-24.95Q758.65-24.95 760.44-23.85 762.23-22.75 763.05-20.69 763.88-18.63 763.88-15.63L763.88-15.63 763.88 0ZM747.55 0L743.5 0 743.5-24.4 747.55-24.4 747.38-18.55 747.55-18.32 747.55 0Z" opacity="1" transform="matrix(1,0,0,1,0,0)" fill="#ffffff" class="slogan-text-1" data-fill-palette-color="quaternary" id="text-1"></path></svg></g></svg></g></svg></g></svg></g><g transform="matrix(1,0,0,1,78.38968953799956,0)"><svg viewBox="0 0 56.379062151157996 62.58547958046936" height="62.58547958046936" width="56.379062151157996"><g><svg xmlns="http://www.w3.org/2000/svg" xmlns:xlink="http://www.w3.org/1999/xlink" version="1.1" x="0" y="0" viewBox="9.824850587268765 10.189 75.65014941273122 83.97800000000001" enable-background="new 0 0 100 100" xml:space="preserve" height="62.58547958046936" width="56.379062151157996" class="icon-icon-0" data-fill-palette-color="quaternary" id="icon-0"><g fill="#ffffff" data-fill-palette-color="quaternary"><path d="M68.539 20.675c-2.891 0-5.242-2.354-5.242-5.246 0-2.89 2.352-5.24 5.242-5.24 2.892 0 5.244 2.351 5.244 5.24C73.783 18.322 71.431 20.675 68.539 20.675zM68.539 12.368c-1.688 0-3.062 1.374-3.062 3.061 0 1.691 1.374 3.066 3.062 3.066 1.689 0 3.064-1.375 3.064-3.066C71.604 13.742 70.229 12.368 68.539 12.368z" fill="#ffffff" data-fill-palette-color="quaternary"></path><path d="M55.242 26.107c-2.891 0-5.242-2.354-5.242-5.246 0-2.89 2.352-5.24 5.242-5.24 2.892 0 5.244 2.351 5.244 5.24C60.486 23.753 58.134 26.107 55.242 26.107zM55.242 17.8c-1.688 0-3.062 1.374-3.062 3.061 0 1.691 1.374 3.066 3.062 3.066 1.689 0 3.064-1.375 3.064-3.066C58.307 19.173 56.932 17.8 55.242 17.8z" fill="#ffffff" data-fill-palette-color="quaternary"></path><g fill="#ffffff" data-fill-palette-color="quaternary"><path d="M84.195 93.278H70.218l5.567-4.775c-7.455-19.181-5.438-36.175-4.46-43.801-0.378-0.584-0.758-1.175-1.136-1.771-2.653 2.275-5.023 2.785-6.615 2.785-2.043 0-3.323-0.799-3.463-0.89l-2.051-1.342 2.37-0.625c2.346-0.617 4.59-2.299 6.681-5.007-2.958-5.187-3.311-7.034-3.311-7.976 0-5.074 4.199-9.202 9.361-9.202 5.163 0 9.363 4.128 9.363 9.202 0 1.882-0.469 6.328-1.396 13.22 4.749 3.776 4.236 7.401 2.926 9.812-3.247 5.976-0.225 30.256 1.216 39.105l0.205 1.264H84.195zM76.106 91.099h6.815c-0.938-6.148-4.616-32.171-0.781-39.23 0.511-0.941 2.066-3.801-2.823-7.414l-0.519-0.383 0.086-0.64c0.956-7.053 1.462-11.74 1.462-13.555 0-3.873-3.223-7.023-7.185-7.023-3.96 0-7.182 3.15-7.182 7.023 0 0.633 0.438 2.449 3.376 7.507l0.356 0.614-0.418 0.574c-1.561 2.146-3.231 3.79-4.994 4.916 1.754-0.226 3.584-1.258 5.337-3.02l0.969-0.974 0.728 1.165c0.672 1.074 1.36 2.147 2.037 3.189l0.219 0.336-0.051 0.397c-0.947 7.344-3.163 24.543 4.557 43.838l0.289 0.724L76.106 91.099z" fill="#ffffff" data-fill-palette-color="quaternary"></path></g><path d="M40.401 94.167c-10.024 0-27.295-1.173-30.34-9.028-1.748-4.517 6.452-12.918 16.529-22.624 2.707-2.605 5.766-5.552 6.209-6.401 0.078-6.641 5.811-11.962 12.516-11.442-0.183-3.583-0.372-7.798-0.372-9.922 0-4.865 2.967-8.824 6.613-8.824 3.647 0 6.614 3.958 6.614 8.824 0 1.044-0.45 2.463-1.373 4.329 1.326 2.04 2.78 3.264 4.33 3.643l2.169 0.531-1.754 1.383c-0.128 0.102-1.302 0.986-3.092 0.986 0 0 0 0-0.001 0-1.096 0-2.668-0.35-4.353-1.857-0.689 1.083-1.47 2.25-2.333 3.493 2.691 2.195 4.269 5.483 4.269 8.998 0 0.945 0.063 2.539 0.145 4.554 0.776 19.355 0.303 31.575-4.449 32.688C50.32 93.825 45.697 94.167 40.401 94.167zM44.414 46.814c-5.202 0-9.436 4.234-9.436 9.439 0 1.099-1.303 2.464-6.875 7.831-6.073 5.848-17.377 16.734-16.01 20.267 1.853 4.781 12.435 7.636 28.308 7.636 5.802 0 9.916-0.399 10.829-0.613 3.955-0.928 3.062-23.169 2.77-30.478-0.082-2.041-0.146-3.652-0.146-4.643 0-3.159-1.568-6.093-4.196-7.849l-0.93-0.622 0.646-0.914c1.421-2.011 2.634-3.836 3.605-5.429l0.781-1.28 0.976 1.139c0.964 1.125 1.948 1.81 2.936 2.047-1.101-0.879-2.122-2.099-3.057-3.652l-0.315-0.523 0.282-0.542c1.228-2.359 1.41-3.444 1.41-3.881 0-3.602-2.03-6.645-4.435-6.645-2.403 0-4.434 3.043-4.434 6.645 0 2.343 0.238 7.342 0.438 11.123l0.074 1.399-1.375-0.272C45.646 46.876 45.025 46.814 44.414 46.814z" fill="#ffffff" data-fill-palette-color="quaternary"></path></g></svg></g></svg></g><g></g></svg></g></svg></g></svg></g></svg></g><defs></defs></svg><rect width="342.85155851775386" height="342.85155851775386" fill="none" stroke="none" visibility="hidden"></rect></g></svg></g></svg>